<?xml version="1.0" encoding="utf-8"?>
<!-- Generator: Adobe Illustrator 25.4.1, SVG Export Plug-In . SVG Version: 6.00 Build 0)  -->
<svg version="1.1" id="Layer_1" focusable="false" xmlns="http://www.w3.org/2000/svg" xmlns:xlink="http://www.w3.org/1999/xlink"
	 x="0px" y="0px" viewBox="0 0 448 512" style="enable-background:new 0 0 448 512;" xml:space="preserve">
<style type="text/css">
	.st0{fill:#77A198;}
</style>
<path class="st0" d="M160,32v32h128V32c0-17.7,14.3-32,32-32s32,14.3,32,32v32h48c26.5,0,48,21.5,48,48v48H0v-48
	c0-26.5,21.5-48,48-48h48V32c0-17.7,14.3-32,32-32S160,14.3,160,32z M0,192h448v272c0,26.5-21.5,48-48,48H48c-26.5,0-48-21.5-48-48
	V192z M64,304c0,8.8,7.2,16,16,16h32c8.8,0,16-7.2,16-16v-32c0-8.8-7.2-16-16-16H80c-8.8,0-16,7.2-16,16V304z M192,304
	c0,8.8,7.2,16,16,16h32c8.8,0,16-7.2,16-16v-32c0-8.8-7.2-16-16-16h-32c-8.8,0-16,7.2-16,16V304z M336,256c-8.8,0-16,7.2-16,16v32
	c0,8.8,7.2,16,16,16h32c8.8,0,16-7.2,16-16v-32c0-8.8-7.2-16-16-16H336z M64,432c0,8.8,7.2,16,16,16h32c8.8,0,16-7.2,16-16v-32
	c0-8.8-7.2-16-16-16H80c-8.8,0-16,7.2-16,16V432z M208,384c-8.8,0-16,7.2-16,16v32c0,8.8,7.2,16,16,16h32c8.8,0,16-7.2,16-16v-32
	c0-8.8-7.2-16-16-16H208z M320,432c0,8.8,7.2,16,16,16h32c8.8,0,16-7.2,16-16v-32c0-8.8-7.2-16-16-16h-32c-8.8,0-16,7.2-16,16V432z"
	/>
</svg>
