<?xml version="1.0" encoding="utf-8"?>
<!-- Generator: Adobe Illustrator 25.4.1, SVG Export Plug-In . SVG Version: 6.00 Build 0)  -->
<svg version="1.1" id="Layer_1" focusable="false" xmlns="http://www.w3.org/2000/svg" xmlns:xlink="http://www.w3.org/1999/xlink"
	 x="0px" y="0px" viewBox="0 0 576 512" style="enable-background:new 0 0 576 512;" xml:space="preserve">
<style type="text/css">
	.st0{fill:#B4B2B2;}
</style>
<path class="st0" d="M573.2,402.7l-139.8-320c-5-11.4-15.8-18.7-27.7-18.7h-97.6l2.5,23.2c0.5,4.7-3.2,8.8-8,8.8h-29.2
	c-4.8,0-8.5-4.1-8-8.8l2.4-23.2h-97.6c-11.9,0-22.8,7.3-27.7,18.7L2.8,402.7C-6.4,423.9,8.3,448,30.5,448h196.8l10.3-97.7
	c0.9-8.1,7.7-14.3,15.9-14.3h68.8c8.2,0,15,6.2,15.9,14.3l10.3,97.7h196.8C567.7,448,582.4,423.9,573.2,402.7L573.2,402.7z
	 M260.4,135.2c0.4-4.1,3.9-7.2,8-7.2h39.3c4.1,0,7.5,3.1,8,7.2l4.6,43.6c0.8,7.1-4.8,13.3-11.9,13.3h-40.5
	c-7.1,0-12.7-6.2-11.9-13.3L260.4,135.2z M315.6,304h-55.3c-9.5,0-16.9-8.2-15.9-17.7l5.1-48c0.9-8.1,7.7-14.3,15.9-14.3h45.1
	c8.2,0,15,6.2,15.9,14.3l5.1,48C332.6,295.8,325.1,304,315.6,304z"/>
</svg>
