<?xml version="1.0" encoding="utf-8"?>
<!-- Generator: Adobe Illustrator 25.4.1, SVG Export Plug-In . SVG Version: 6.00 Build 0)  -->
<svg version="1.1" id="Layer_1" focusable="false" xmlns="http://www.w3.org/2000/svg" xmlns:xlink="http://www.w3.org/1999/xlink"
	 x="0px" y="0px" viewBox="0 0 512 512" style="enable-background:new 0 0 512 512;" xml:space="preserve">
<style type="text/css">
	.st0{fill:#B4B2B2;}
</style>
<path class="st0" d="M139.6,35.5c-4.7-4.7-12.3-4.7-17,0c0,0,0,0,0,0L58.9,98.8L36.2,76.7c-4.7-4.7-12.3-4.7-17,0c0,0,0,0,0,0
	L3.5,92.4c-4.7,4.7-4.7,12.3,0,17c0,0,0,0,0,0l47.6,47.4c4.9,4.7,12.7,4.7,17.6,0l15.6-15.6L156.5,69c4.7-4.7,4.7-12.3,0.1-17
	L139.6,35.5z M139.6,194.7c-4.7-4.7-12.3-4.7-17,0c0,0,0,0,0,0l-63.7,63.7l-22.7-22.1c-4.7-4.7-12.3-4.7-17,0c0,0,0,0,0,0L3.5,252
	c-4.7,4.7-4.7,12.3,0,17c0,0,0,0,0,0L51,316.5c4.9,4.7,12.7,4.7,17.6,0l15.7-15.7l72.2-72.2c4.7-4.7,4.7-12.2,0.1-16.9L139.6,194.7z
	 M64,368c-26.5,0-48.6,21.5-48.6,48s22.1,48,48.6,48c26.5,0,48-21.5,48-48S90.5,368,64,368z M496,384H208c-8.8,0-16,7.2-16,16v32
	c0,8.8,7.2,16,16,16h288c8.8,0,16-7.2,16-16v-32C512,391.2,504.8,384,496,384z M496,64H208c-8.8,0-16,7.2-16,16v32
	c0,8.8,7.2,16,16,16h288c8.8,0,16-7.2,16-16V80C512,71.2,504.8,64,496,64z M496,224H208c-8.8,0-16,7.2-16,16v32c0,8.8,7.2,16,16,16
	h288c8.8,0,16-7.2,16-16v-32C512,231.2,504.8,224,496,224z"/>
</svg>
