<?xml version="1.0" encoding="utf-8"?>
<!-- Generator: Adobe Illustrator 26.0.1, SVG Export Plug-In . SVG Version: 6.00 Build 0)  -->
<svg version="1.1" id="Layer_1" focusable="false" xmlns="http://www.w3.org/2000/svg" xmlns:xlink="http://www.w3.org/1999/xlink"
	 x="0px" y="0px" viewBox="0 0 640 512" style="enable-background:new 0 0 640 512;" xml:space="preserve">
<style type="text/css">
	.st0{fill:#77A198;}
</style>
<path class="st0" d="M368,0c26.5,0,48,21.5,48,48v48h50.7c17,0,32.4,6.7,45.3,18.7l77.3,77.3c12,12,18.7,28.3,18.7,45.3V352
	c17.7,0,32,14.3,32,32s-14.3,32-32,32h-32c0,53-43,96-96,96c-53.9,0-96-43-96-96H256c0,53-43,96-96,96c-53.9,0-96-43-96-96H48
	c-26.5,0-48-21.5-48-48V48C0,21.5,21.5,0,48,0H368z M416,160v96h128v-18.7L466.7,160H416z M160,368c-26.5,0-48,21.5-48,48
	s21.5,48,48,48s48-21.5,48-48S186.5,368,160,368z M480,464c26.5,0,48-21.5,48-48s-21.5-48-48-48s-48,21.5-48,48S453.5,464,480,464z"
	/>
</svg>
